<?xml version="1.0" encoding="utf-8"?>
<!-- Generator: Adobe Illustrator 25.3.1, SVG Export Plug-In . SVG Version: 6.00 Build 0)  -->
<svg version="1.1" id="Layer_1" xmlns="http://www.w3.org/2000/svg" xmlns:xlink="http://www.w3.org/1999/xlink" x="0px" y="0px"
	 viewBox="0 0 500 500" style="enable-background:new 0 0 500 500;" xml:space="preserve">
<style type="text/css">
	.st0{fill:url(#SVGID_1_);}
	.st1{fill:#709EE9;}
	.st2{fill:#1863DC;}
</style>
<g>
	<linearGradient id="SVGID_1_" gradientUnits="userSpaceOnUse" x1="250" y1="7.1758" x2="250" y2="499.6935">
		<stop  offset="0" style="stop-color:#FFFFFF"/>
		<stop  offset="1" style="stop-color:#DBEDFF"/>
	</linearGradient>
	<rect class="st0" width="500" height="500"/>
	<path class="st1" d="M354.2,321.5c0,42.5-22.1,79.9-55.4,101.4c-18.6,12-40.7,19-64.4,19.2h-88.6l161.7-215.8
		C335.9,248.3,354.2,282.7,354.2,321.5z"/>
	<g>
		<path class="st2" d="M304.1,188.8L288.4,214l-13.5,21.6L148,438.5l-2.1,3.4l0,0.1l0,0.1v-3.5l0.2-241.1l0.1-53.9
			c0-47.2,38.3-85.4,85.5-85.4C298.8,58,339.7,131.9,304.1,188.8z"/>
	</g>
	<path class="st1" d="M354.2,321.5c0,42.5-22.1,79.9-55.4,101.4c-18.6,12-40.7,19-64.4,19.2h-88.6l161.7-215.8
		C335.9,248.3,354.2,282.7,354.2,321.5z"/>
	<g>
		<path class="st2" d="M304.1,188.8L288.4,214l-13.5,21.6L148,438.5l-2.1,3.4l0,0.1l0,0.1v-3.5l0.2-241.1l0.1-53.9
			c0-47.2,38.3-85.4,85.5-85.4C298.8,58,339.7,131.9,304.1,188.8z"/>
	</g>
</g>
</svg>
