<svg width="46" height="37" viewBox="0 0 46 37" fill="none" xmlns="http://www.w3.org/2000/svg">
<path d="M45.36 12.32C45.36 4.48 40.72 0.160006 35.44 0.160006C30.64 0.160006 26.96 4 26.96 8.64C26.96 13.44 30.16 16.8 34.64 16.8C35.44 16.8 36.56 16.64 36.72 16.64C36.24 21.76 31.6 28.16 26.48 31.52L32.4 36.32C39.76 31.04 45.36 22.08 45.36 12.32ZM19.76 12.32C19.76 4.48 15.12 0.160006 9.84 0.160006C5.04 0.160006 1.2 4 1.2 8.64C1.2 13.44 4.56 16.8 9.04 16.8C9.84 16.8 10.96 16.64 11.12 16.64C10.48 21.76 6 28.16 0.879997 31.52L6.8 36.32C14.16 31.04 19.76 22.08 19.76 12.32Z" fill="#1da075"/>
</svg>
