<svg width="46" height="37" viewBox="0 0 46 37" fill="none" xmlns="http://www.w3.org/2000/svg">
<path d="M0.64 24.68C0.64 32.52 5.28 36.84 10.56 36.84C15.36 36.84 19.04 33 19.04 28.36C19.04 23.56 15.84 20.2 11.36 20.2C10.56 20.2 9.44 20.36 9.28 20.36C9.76 15.24 14.4 8.83999 19.52 5.48L13.6 0.679993C6.24 5.95999 0.64 14.92 0.64 24.68ZM26.24 24.68C26.24 32.52 30.88 36.84 36.16 36.84C40.96 36.84 44.8 33 44.8 28.36C44.8 23.56 41.44 20.2 36.96 20.2C36.16 20.2 35.04 20.36 34.88 20.36C35.52 15.24 40 8.83999 45.12 5.48L39.2 0.679993C31.84 5.95999 26.24 14.92 26.24 24.68Z" fill="#1da075"/>
</svg>
