<svg xmlns="http://www.w3.org/2000/svg" xmlns:xlink="http://www.w3.org/1999/xlink" viewBox="0 0 121.37 122.88"><defs><style>.cls-1{fill:#269272;}.cls-2,.cls-3,.cls-4{stroke-miterlimit:10;stroke-width:0.79px;}.cls-2{fill:url(#linear-gradient);stroke:url(#linear-gradient-2);}.cls-3{fill:url(#linear-gradient-3);stroke:url(#linear-gradient-4);}.cls-4{fill:url(#linear-gradient-5);stroke:url(#linear-gradient-6);}</style><linearGradient id="linear-gradient" x1="0.4" y1="16.45" x2="32.51" y2="16.45" gradientUnits="userSpaceOnUse"><stop offset="0.11" stop-color="#289372"/><stop offset="0.19" stop-color="#55aa90" stop-opacity="0.83"/><stop offset="0.39" stop-color="#b1d8cc" stop-opacity="0.49"/><stop offset="0.55" stop-color="#eaf4f1" stop-opacity="0.28"/><stop offset="0.64" stop-color="#fff" stop-opacity="0.2"/><stop offset="0.69" stop-color="#fff" stop-opacity="0.21"/><stop offset="0.74" stop-color="#fff" stop-opacity="0.26"/><stop offset="0.78" stop-color="#fff" stop-opacity="0.33"/><stop offset="0.82" stop-color="#fff" stop-opacity="0.43"/><stop offset="0.86" stop-color="#fff" stop-opacity="0.55"/><stop offset="0.9" stop-color="#fff" stop-opacity="0.71"/><stop offset="0.94" stop-color="#fff" stop-opacity="0.89"/><stop offset="0.96" stop-color="#fff"/></linearGradient><linearGradient id="linear-gradient-2" y1="16.45" x2="32.9" y2="16.45" gradientUnits="userSpaceOnUse"><stop offset="0" stop-color="#289372"/><stop offset="0.11" stop-color="#399b7d"/><stop offset="0.33" stop-color="#64b199"/><stop offset="0.63" stop-color="#aad4c8"/><stop offset="0.96" stop-color="#fff"/></linearGradient><linearGradient id="linear-gradient-3" x1="0.4" y1="61.44" x2="32.51" y2="61.44" xlink:href="#linear-gradient"/><linearGradient id="linear-gradient-4" y1="61.44" x2="32.9" y2="61.44" xlink:href="#linear-gradient-2"/><linearGradient id="linear-gradient-5" x1="0.4" y1="106.43" x2="32.51" y2="106.43" xlink:href="#linear-gradient"/><linearGradient id="linear-gradient-6" y1="106.43" x2="32.9" y2="106.43" xlink:href="#linear-gradient-2"/></defs><g id="Layer_2" data-name="Layer 2"><g id="Layer_1-2" data-name="Layer 1"><path class="cls-1" d="M50.16,2.69h57.45a13.76,13.76,0,0,1,13.76,13.76v0a13.76,13.76,0,0,1-13.76,13.76H50.16a0,0,0,0,1,0,0V2.69A0,0,0,0,1,50.16,2.69Z"/><path class="cls-1" d="M50.16,46.72h57.45a13.76,13.76,0,0,1,13.76,13.76v0a13.76,13.76,0,0,1-13.76,13.76H50.16a0,0,0,0,1,0,0V46.72A0,0,0,0,1,50.16,46.72Z"/><path class="cls-1" d="M50.16,90.76h57.45a13.76,13.76,0,0,1,13.76,13.76v0a13.76,13.76,0,0,1-13.76,13.76H50.16a0,0,0,0,1,0,0V90.76A0,0,0,0,1,50.16,90.76Z"/><circle class="cls-2" cx="16.45" cy="16.45" r="16.05"/><circle class="cls-3" cx="16.45" cy="61.44" r="16.05"/><circle class="cls-4" cx="16.45" cy="106.43" r="16.05"/></g></g></svg>