<svg xmlns="http://www.w3.org/2000/svg" xmlns:xlink="http://www.w3.org/1999/xlink" viewBox="0 0 142.47 146.56"><defs><style>.cls-1{stroke-miterlimit:10;stroke-width:0.75px;fill:url(#linear-gradient);stroke:url(#linear-gradient-2);}.cls-2{fill:#fff;}.cls-3{fill:#269272;}</style><linearGradient id="linear-gradient" x1="-9.29" y1="25.3" x2="128.58" y2="149.97" gradientUnits="userSpaceOnUse"><stop offset="0.11" stop-color="#289372"/><stop offset="0.19" stop-color="#55aa90" stop-opacity="0.83"/><stop offset="0.39" stop-color="#b1d8cc" stop-opacity="0.49"/><stop offset="0.55" stop-color="#eaf4f1" stop-opacity="0.28"/><stop offset="0.64" stop-color="#fff" stop-opacity="0.2"/><stop offset="0.69" stop-color="#fff" stop-opacity="0.21"/><stop offset="0.74" stop-color="#fff" stop-opacity="0.26"/><stop offset="0.78" stop-color="#fff" stop-opacity="0.33"/><stop offset="0.82" stop-color="#fff" stop-opacity="0.43"/><stop offset="0.86" stop-color="#fff" stop-opacity="0.55"/><stop offset="0.9" stop-color="#fff" stop-opacity="0.71"/><stop offset="0.94" stop-color="#fff" stop-opacity="0.89"/><stop offset="0.96" stop-color="#fff"/></linearGradient><linearGradient id="linear-gradient-2" y1="87.3" x2="118.54" y2="87.3" gradientUnits="userSpaceOnUse"><stop offset="0" stop-color="#289372"/><stop offset="0.11" stop-color="#399b7d"/><stop offset="0.33" stop-color="#64b199"/><stop offset="0.63" stop-color="#aad4c8"/><stop offset="0.96" stop-color="#fff"/></linearGradient></defs><g id="Layer_2" data-name="Layer 2"><g id="Layer_1-2" data-name="Layer 1"><rect class="cls-1" x="0.38" y="28.4" width="117.79" height="117.79" rx="7.29"/><rect class="cls-2" x="0.38" y="102.98" width="43.21" height="43.21" rx="7.29"/><path class="cls-3" d="M38.63,71.47v24a8.31,8.31,0,0,0,8.31,8.32H71a8.31,8.31,0,0,0,5.88-2.44L140,38.24a8.3,8.3,0,0,0,0-11.75L116,2.43a8.32,8.32,0,0,0-11.75,0L41.06,65.6A8.3,8.3,0,0,0,38.63,71.47Z"/></g></g></svg>