<svg xmlns="http://www.w3.org/2000/svg" xmlns:xlink="http://www.w3.org/1999/xlink" viewBox="0 0 123.39 121.55"><defs><style>.cls-1{stroke-miterlimit:10;stroke-width:0.79px;fill:url(#linear-gradient);stroke:url(#linear-gradient-2);}.cls-2{fill:#269272;}</style><linearGradient id="linear-gradient" x1="-3.31" y1="40.66" x2="98.37" y2="56.05" gradientTransform="translate(89.67 89.67) rotate(-180)" gradientUnits="userSpaceOnUse"><stop offset="0.08" stop-color="#289372"/><stop offset="0.17" stop-color="#55aa90" stop-opacity="0.83"/><stop offset="0.38" stop-color="#b1d8cc" stop-opacity="0.49"/><stop offset="0.54" stop-color="#eaf4f1" stop-opacity="0.28"/><stop offset="0.64" stop-color="#fff" stop-opacity="0.2"/><stop offset="0.68" stop-color="#fff" stop-opacity="0.21"/><stop offset="0.72" stop-color="#fff" stop-opacity="0.26"/><stop offset="0.76" stop-color="#fff" stop-opacity="0.33"/><stop offset="0.79" stop-color="#fff" stop-opacity="0.43"/><stop offset="0.83" stop-color="#fff" stop-opacity="0.55"/><stop offset="0.86" stop-color="#fff" stop-opacity="0.71"/><stop offset="0.9" stop-color="#fff" stop-opacity="0.89"/><stop offset="0.91" stop-color="#fff"/></linearGradient><linearGradient id="linear-gradient-2" y1="44.84" x2="89.67" y2="44.84" gradientTransform="translate(89.67 89.67) rotate(-180)" gradientUnits="userSpaceOnUse"><stop offset="0" stop-color="#289372"/><stop offset="0.11" stop-color="#399b7d"/><stop offset="0.33" stop-color="#64b199"/><stop offset="0.63" stop-color="#aad4c8"/><stop offset="0.96" stop-color="#fff"/></linearGradient></defs><g id="Layer_2" data-name="Layer 2"><g id="Layer_1-2" data-name="Layer 1"><path class="cls-1" d="M44.84.4H89.27a0,0,0,0,1,0,0V44.84A44.44,44.44,0,0,1,44.84,89.27h0A44.44,44.44,0,0,1,.4,44.84v0A44.44,44.44,0,0,1,44.84.4Z" transform="translate(89.67 89.67) rotate(180)"/><path class="cls-2" d="M85.36,45.5h0a38,38,0,0,1,38,38v38a0,0,0,0,1,0,0h-38a38,38,0,0,1-38-38v0a38,38,0,0,1,38-38Z"/></g></g></svg>