<svg xmlns="http://www.w3.org/2000/svg" xmlns:xlink="http://www.w3.org/1999/xlink" viewBox="0 0 119.59 119.33"><defs><style>.cls-1{fill:#269272;}.cls-2,.cls-3{stroke-miterlimit:10;stroke-width:0.79px;}.cls-2{fill:url(#linear-gradient);stroke:url(#linear-gradient-2);}.cls-3{fill:url(#linear-gradient-3);stroke:url(#linear-gradient-4);}</style><linearGradient id="linear-gradient" x1="54.02" y1="84.78" x2="119.19" y2="84.78" gradientUnits="userSpaceOnUse"><stop offset="0.11" stop-color="#289372"/><stop offset="0.22" stop-color="#55aa90" stop-opacity="0.83"/><stop offset="0.48" stop-color="#b1d8cc" stop-opacity="0.49"/><stop offset="0.69" stop-color="#eaf4f1" stop-opacity="0.28"/><stop offset="0.81" stop-color="#fff" stop-opacity="0.2"/><stop offset="0.84" stop-color="#fff" stop-opacity="0.21"/><stop offset="0.87" stop-color="#fff" stop-opacity="0.26"/><stop offset="0.89" stop-color="#fff" stop-opacity="0.33"/><stop offset="0.92" stop-color="#fff" stop-opacity="0.43"/><stop offset="0.94" stop-color="#fff" stop-opacity="0.55"/><stop offset="0.97" stop-color="#fff" stop-opacity="0.71"/><stop offset="0.99" stop-color="#fff" stop-opacity="0.89"/><stop offset="1" stop-color="#fff"/></linearGradient><linearGradient id="linear-gradient-2" x1="53.62" y1="84.78" x2="119.59" y2="84.78" gradientUnits="userSpaceOnUse"><stop offset="0" stop-color="#289372"/><stop offset="0.11" stop-color="#399b7d"/><stop offset="0.33" stop-color="#64b199"/><stop offset="0.63" stop-color="#aad4c8"/><stop offset="0.96" stop-color="#fff"/></linearGradient><linearGradient id="linear-gradient-3" x1="67.1" y1="20.62" x2="106.65" y2="20.62" gradientUnits="userSpaceOnUse"><stop offset="0.11" stop-color="#289372"/><stop offset="0.19" stop-color="#55aa90" stop-opacity="0.83"/><stop offset="0.39" stop-color="#b1d8cc" stop-opacity="0.49"/><stop offset="0.55" stop-color="#eaf4f1" stop-opacity="0.28"/><stop offset="0.64" stop-color="#fff" stop-opacity="0.2"/><stop offset="0.69" stop-color="#fff" stop-opacity="0.21"/><stop offset="0.74" stop-color="#fff" stop-opacity="0.26"/><stop offset="0.78" stop-color="#fff" stop-opacity="0.33"/><stop offset="0.82" stop-color="#fff" stop-opacity="0.43"/><stop offset="0.86" stop-color="#fff" stop-opacity="0.55"/><stop offset="0.9" stop-color="#fff" stop-opacity="0.71"/><stop offset="0.94" stop-color="#fff" stop-opacity="0.89"/><stop offset="0.96" stop-color="#fff"/></linearGradient><linearGradient id="linear-gradient-4" x1="66.71" y1="20.62" x2="107.05" y2="20.62" xlink:href="#linear-gradient-2"/></defs><g id="Layer_2" data-name="Layer 2"><g id="Layer_1-2" data-name="Layer 1"><path class="cls-1" d="M34.15,47.36h0A34.15,34.15,0,0,1,68.3,81.51v37.42a0,0,0,0,1,0,0H0a0,0,0,0,1,0,0V81.51A34.15,34.15,0,0,1,34.15,47.36Z"/><path class="cls-2" d="M86.6,50.64h0a32.59,32.59,0,0,1,32.59,32.59v35.71a0,0,0,0,1,0,0H54a0,0,0,0,1,0,0V83.22A32.59,32.59,0,0,1,86.6,50.64Z"/><circle class="cls-1" cx="34.15" cy="20.62" r="20.62"/><circle class="cls-3" cx="86.88" cy="20.62" r="19.77"/></g></g></svg>