<?xml version="1.0" encoding="utf-8"?>
<!-- Generator: Adobe Illustrator 25.3.1, SVG Export Plug-In . SVG Version: 6.00 Build 0)  -->
<svg version="1.1" id="Layer_1" xmlns="http://www.w3.org/2000/svg" xmlns:xlink="http://www.w3.org/1999/xlink" x="0px" y="0px"
	 viewBox="0 0 356.7 131.2" style="enable-background:new 0 0 356.7 131.2;" xml:space="preserve">
<style type="text/css">
	.st0{fill:#727277;}
	.st1{fill:#709EE9;}
	.st2{fill:#1863DC;}
</style>
<g>
	<g>
		<g>
			<path class="st0" d="M121.1,82.2h-18V49h17.5c3,0,5.4,0.8,7,2.5c1.7,1.6,2.5,3.6,2.5,6c0,2-0.5,3.7-1.6,5.1
				c-1.1,1.4-2.5,2.2-4.1,2.5c1.8,0.3,3.3,1.2,4.5,2.7c1.2,1.6,1.8,3.4,1.8,5.4c0,2.6-0.8,4.7-2.5,6.4
				C126.5,81.3,124.1,82.2,121.1,82.2z M119,62.3c1.2,0,2.1-0.3,2.8-1c0.7-0.7,1-1.5,1-2.6c0-1.1-0.4-1.9-1.1-2.6
				c-0.7-0.7-1.7-1-2.8-1h-8.9v7.2H119z M119.2,76.1c1.3,0,2.4-0.3,3.1-1c0.8-0.7,1.1-1.6,1.1-2.8c0-1.1-0.4-2-1.1-2.8
				c-0.8-0.7-1.8-1.1-3.1-1.1h-9.1v7.7H119.2z"/>
			<path class="st0" d="M159.6,82.2h-21.1V49h7.1v27h14V82.2z"/>
			<path class="st0" d="M192,79c-2.5,2.5-6.3,3.7-11.2,3.7c-4.9,0-8.6-1.3-11.2-3.8c-2.5-2.5-3.8-5.9-3.8-10.1V49h7.2v19.7
				c0,2.4,0.7,4.3,2,5.7c1.4,1.4,3.3,2.1,5.8,2.1c2.5,0,4.4-0.7,5.7-2.1c1.3-1.4,2-3.3,2-5.7V49h7.2v19.9
				C195.8,73.2,194.5,76.6,192,79z"/>
			<path class="st0" d="M220.9,82.8c-5,0-9.2-1.6-12.6-4.8c-3.4-3.2-5-7.3-5-12.4c0-5,1.7-9.2,5-12.4c3.4-3.2,7.6-4.8,12.6-4.8
				c6.2,0,10.8,2.7,13.9,8.1l-6.1,3c-0.7-1.4-1.8-2.5-3.2-3.5c-1.4-0.9-2.9-1.4-4.6-1.4c-3,0-5.5,1-7.5,3.1c-2,2.1-2.9,4.7-2.9,7.8
				c0,3.2,1,5.8,2.9,7.8c2,2.1,4.4,3.1,7.5,3.1c1.7,0,3.2-0.4,4.6-1.3c1.4-0.9,2.5-2.1,3.2-3.5l6.1,2.9
				C231.6,80.1,227,82.8,220.9,82.8z"/>
			<path class="st0" d="M257.2,82.8c-5,0-9.1-1.6-12.4-4.9c-3.3-3.2-4.9-7.3-4.9-12.3s1.6-9.1,4.9-12.3c3.3-3.2,7.4-4.9,12.4-4.9
				c5,0,9.2,1.6,12.5,4.8c3.3,3.2,4.9,7.3,4.9,12.3c0,5-1.6,9.1-4.9,12.3C266.4,81.2,262.2,82.8,257.2,82.8z M249.9,73.4
				c1.8,2.1,4.3,3.1,7.3,3.1c3,0,5.5-1,7.3-3.1c1.9-2.1,2.8-4.7,2.8-7.8c0-3.2-0.9-5.8-2.8-7.8c-1.9-2.1-4.3-3.1-7.3-3.1
				c-3,0-5.4,1-7.3,3.1c-1.8,2.1-2.8,4.7-2.8,7.8C247.1,68.8,248.1,71.4,249.9,73.4z"/>
			<path class="st0" d="M318,82.2h-7.1V58.9l-9.4,23.2h-3.1l-9.4-23.2v23.2H282V49h9.9l8.1,20l8.1-20h10V82.2z"/>
		</g>
	</g>
	<g>
		<path class="st1" d="M86.8,82.1c0,9.8-5.1,18.4-12.8,23.4c-4.3,2.8-9.4,4.4-14.9,4.4H38.7L76,60.1C82.6,65.2,86.8,73.2,86.8,82.1z
			"/>
		<g>
			<path class="st2" d="M75.2,51.5l-3.6,5.8l-3.1,5l-29.2,46.8l-0.5,0.8v-0.8l0-55.6l0-12.4c0-10.9,8.8-19.7,19.7-19.7
				C74,21.3,83.5,38.4,75.2,51.5z"/>
		</g>
	</g>
</g>
</svg>
