<?xml version="1.0" encoding="utf-8"?>
<!-- Generator: Adobe Illustrator 25.3.1, SVG Export Plug-In . SVG Version: 6.00 Build 0)  -->
<svg version="1.1" id="Layer_1" xmlns="http://www.w3.org/2000/svg" xmlns:xlink="http://www.w3.org/1999/xlink" x="0px" y="0px"
	 viewBox="0 0 127.7 105.5" style="enable-background:new 0 0 127.7 105.5;" xml:space="preserve">
<style type="text/css">
	.st0{fill:#727277;}
	.st1{fill:#484D54;}
	.st2{fill:#1E2832;}
</style>
<g>
	<g>
		<path class="st0" d="M14.5,78.3h-10V59.9h9.7c1.7,0,3,0.5,3.9,1.4c0.9,0.9,1.4,2,1.4,3.3c0,1.1-0.3,2.1-0.9,2.8
			c-0.6,0.8-1.4,1.2-2.3,1.4c1,0.1,1.8,0.7,2.5,1.5c0.7,0.9,1,1.9,1,3c0,1.4-0.5,2.6-1.4,3.6S16.2,78.3,14.5,78.3z M13.4,67.2
			c0.7,0,1.2-0.2,1.6-0.6c0.4-0.4,0.6-0.8,0.6-1.4c0-0.6-0.2-1.1-0.6-1.5c-0.4-0.4-0.9-0.6-1.6-0.6H8.5v4H13.4z M13.5,74.9
			c0.7,0,1.3-0.2,1.7-0.6c0.4-0.4,0.6-0.9,0.6-1.6c0-0.6-0.2-1.1-0.6-1.5c-0.4-0.4-1-0.6-1.7-0.6H8.5v4.3H13.5z"/>
		<path class="st0" d="M36,78.3H24.2V59.9h3.9v15H36V78.3z"/>
		<path class="st0" d="M53.9,76.6c-1.4,1.4-3.5,2.1-6.2,2.1c-2.7,0-4.8-0.7-6.2-2.1c-1.4-1.4-2.1-3.3-2.1-5.6V59.9h4v10.9
			c0,1.3,0.4,2.4,1.1,3.2c0.8,0.8,1.8,1.2,3.2,1.2c1.4,0,2.4-0.4,3.2-1.2c0.7-0.8,1.1-1.8,1.1-3.2V59.9h4v11.1
			C56,73.3,55.3,75.2,53.9,76.6z"/>
		<path class="st0" d="M70,78.6c-2.8,0-5.1-0.9-7-2.7c-1.9-1.8-2.8-4.1-2.8-6.9s0.9-5.1,2.8-6.9c1.9-1.8,4.2-2.7,7-2.7
			c3.4,0,6,1.5,7.7,4.5l-3.4,1.7c-0.4-0.8-1-1.4-1.8-1.9S70.9,63,70,63c-1.7,0-3.1,0.6-4.1,1.7c-1.1,1.1-1.6,2.6-1.6,4.3
			s0.5,3.2,1.6,4.3c1.1,1.1,2.5,1.7,4.1,1.7c0.9,0,1.8-0.2,2.6-0.7c0.8-0.5,1.4-1.1,1.8-1.9l3.4,1.6C75.9,77.1,73.4,78.6,70,78.6z"
			/>
		<path class="st0" d="M90.1,78.6c-2.8,0-5.1-0.9-6.9-2.7c-1.8-1.8-2.7-4.1-2.7-6.8c0-2.8,0.9-5,2.7-6.8c1.8-1.8,4.1-2.7,6.9-2.7
			c2.8,0,5.1,0.9,6.9,2.7c1.8,1.8,2.7,4.1,2.7,6.9s-0.9,5.1-2.7,6.9C95.2,77.7,92.9,78.6,90.1,78.6z M86.1,73.4c1,1.1,2.4,1.7,4,1.7
			s3-0.6,4.1-1.7c1-1.1,1.5-2.6,1.5-4.3s-0.5-3.2-1.5-4.3c-1-1.1-2.4-1.7-4.1-1.7s-3,0.6-4,1.7c-1,1.1-1.5,2.6-1.5,4.3
			S85.1,72.3,86.1,73.4z"/>
		<path class="st0" d="M123.9,78.3h-4V65.4l-5.2,12.9H113l-5.2-12.9v12.9h-3.9V59.9h5.5l4.5,11.1l4.5-11.1h5.5V78.3z"/>
	</g>
</g>
<g>
	<g>
		<path class="st0" d="M7.4,90.4H6.6v-5.7h-2V84h4.9v0.7h-2V90.4z"/>
		<path class="st0" d="M18.9,90.4h-4.2V84h4.2v0.7h-3.4v2.1h3.3v0.7h-3.3v2.2h3.4V90.4z"/>
		<path class="st0" d="M27.4,90.5c-0.9,0-1.7-0.3-2.3-0.9s-0.9-1.4-0.9-2.4s0.3-1.8,0.9-2.4c0.6-0.6,1.4-0.9,2.3-0.9
			c1,0,1.8,0.4,2.4,1.3l-0.7,0.4c-0.2-0.3-0.4-0.5-0.7-0.7s-0.7-0.3-1-0.3c-0.7,0-1.3,0.2-1.8,0.7S25,86.4,25,87.2s0.2,1.4,0.7,1.9
			s1.1,0.7,1.8,0.7c0.4,0,0.7-0.1,1-0.3s0.6-0.4,0.7-0.7l0.7,0.4C29.3,90.1,28.5,90.5,27.4,90.5z"/>
		<path class="st0" d="M40.5,90.4h-0.8v-2.9h-3.7v2.9h-0.8V84h0.8v2.8h3.7V84h0.8V90.4z"/>
		<path class="st0" d="M51.5,90.4h-0.8L47,85.3v5.1h-0.8V84H47l3.7,5v-5h0.8V90.4z"/>
		<path class="st0" d="M60.2,90.5c-0.9,0-1.7-0.3-2.3-0.9c-0.6-0.6-0.9-1.4-0.9-2.4c0-1,0.3-1.7,0.9-2.4s1.4-0.9,2.3-0.9
			c0.9,0,1.7,0.3,2.3,0.9s0.9,1.4,0.9,2.4c0,1-0.3,1.7-0.9,2.4C61.9,90.2,61.1,90.5,60.2,90.5z M60.2,89.8c0.7,0,1.3-0.2,1.7-0.7
			c0.4-0.5,0.6-1.1,0.6-1.9c0-0.8-0.2-1.4-0.6-1.9c-0.4-0.5-1-0.7-1.7-0.7c-0.7,0-1.3,0.2-1.7,0.7c-0.4,0.5-0.6,1.1-0.6,1.9
			c0,0.8,0.2,1.4,0.6,1.9C58.9,89.5,59.4,89.8,60.2,89.8z"/>
		<path class="st0" d="M72.6,90.4h-3.8V84h0.8v5.7h3V90.4z"/>
		<path class="st0" d="M80.5,90.5c-0.9,0-1.7-0.3-2.3-0.9c-0.6-0.6-0.9-1.4-0.9-2.4c0-1,0.3-1.7,0.9-2.4s1.4-0.9,2.3-0.9
			c0.9,0,1.7,0.3,2.3,0.9s0.9,1.4,0.9,2.4c0,1-0.3,1.7-0.9,2.4C82.2,90.2,81.5,90.5,80.5,90.5z M80.5,89.8c0.7,0,1.3-0.2,1.7-0.7
			c0.4-0.5,0.6-1.1,0.6-1.9c0-0.8-0.2-1.4-0.6-1.9c-0.4-0.5-1-0.7-1.7-0.7c-0.7,0-1.3,0.2-1.7,0.7c-0.4,0.5-0.6,1.1-0.6,1.9
			c0,0.8,0.2,1.4,0.6,1.9C79.3,89.5,79.8,89.8,80.5,89.8z"/>
		<path class="st0" d="M92.2,90.5c-0.9,0-1.7-0.3-2.3-0.9s-1-1.4-1-2.4s0.3-1.8,1-2.4c0.6-0.6,1.4-0.9,2.3-0.9c1,0,1.8,0.4,2.5,1.2
			l-0.6,0.4c-0.2-0.3-0.5-0.5-0.8-0.6c-0.3-0.2-0.7-0.2-1.1-0.2c-0.7,0-1.3,0.2-1.8,0.7s-0.7,1.1-0.7,1.9s0.2,1.4,0.7,1.9
			s1.1,0.7,1.8,0.7c0.4,0,0.7-0.1,1-0.2s0.5-0.3,0.7-0.5v-1.3h-2.2v-0.7h3v2.3C94.1,90.1,93.3,90.5,92.2,90.5z"/>
		<path class="st0" d="M101.1,90.4h-0.8V84h0.8V90.4z"/>
		<path class="st0" d="M111,90.4h-4.2V84h4.2v0.7h-3.4v2.1h3.3v0.7h-3.3v2.2h3.4V90.4z"/>
		<path class="st0" d="M118.6,90.5c-1,0-1.9-0.3-2.5-1l0.5-0.6c0.5,0.6,1.2,0.9,2,0.9c0.5,0,0.9-0.1,1.1-0.3
			c0.2-0.2,0.4-0.5,0.4-0.8c0-0.2-0.1-0.4-0.2-0.6c-0.1-0.2-0.3-0.3-0.5-0.4c-0.2-0.1-0.5-0.2-0.7-0.2c-0.3-0.1-0.5-0.1-0.8-0.2
			c-0.3-0.1-0.5-0.2-0.7-0.3c-0.2-0.1-0.4-0.3-0.5-0.5s-0.2-0.5-0.2-0.8c0-0.5,0.2-1,0.6-1.3c0.4-0.3,0.9-0.5,1.6-0.5
			c1,0,1.7,0.3,2.3,0.9l-0.5,0.6c-0.5-0.5-1.1-0.8-1.9-0.8c-0.4,0-0.7,0.1-0.9,0.3c-0.2,0.2-0.4,0.4-0.4,0.7c0,0.2,0.1,0.4,0.3,0.6
			s0.4,0.3,0.7,0.3c0.3,0.1,0.6,0.2,0.9,0.3c0.3,0.1,0.6,0.2,0.9,0.3c0.3,0.1,0.5,0.3,0.7,0.6c0.2,0.3,0.3,0.6,0.3,1
			c0,0.5-0.2,1-0.6,1.3C120,90.3,119.4,90.5,118.6,90.5z"/>
	</g>
</g>
<g>
	<g>
		<path class="st0" d="M6.2,103.1l-0.4,0.3c-0.9-1.2-1.4-2.7-1.4-4.2c0-1.6,0.5-3,1.4-4.2l0.4,0.3c-0.3,0.7-0.6,1.3-0.8,1.9
			c-0.2,0.6-0.2,1.3-0.2,2s0.1,1.4,0.2,2C5.6,101.8,5.9,102.5,6.2,103.1z"/>
		<path class="st0" d="M9.4,101.7c-1,0-1.9-0.3-2.5-1l0.5-0.6c0.5,0.6,1.2,0.9,2,0.9c0.5,0,0.9-0.1,1.1-0.3c0.2-0.2,0.4-0.5,0.4-0.8
			c0-0.2-0.1-0.4-0.2-0.6c-0.1-0.2-0.3-0.3-0.5-0.4c-0.2-0.1-0.5-0.2-0.7-0.2c-0.3-0.1-0.5-0.1-0.8-0.2c-0.3-0.1-0.5-0.2-0.7-0.3
			c-0.2-0.1-0.4-0.3-0.5-0.5c-0.1-0.2-0.2-0.5-0.2-0.8c0-0.5,0.2-1,0.6-1.3C8.2,95.2,8.7,95,9.3,95c1,0,1.7,0.3,2.3,0.9l-0.5,0.6
			c-0.5-0.5-1.1-0.8-1.9-0.8c-0.4,0-0.7,0.1-0.9,0.3C8.1,96.2,8,96.5,8,96.8c0,0.2,0.1,0.4,0.3,0.6s0.4,0.3,0.7,0.3
			c0.3,0.1,0.6,0.2,0.9,0.3c0.3,0.1,0.6,0.2,0.9,0.3c0.3,0.1,0.5,0.3,0.7,0.6c0.2,0.3,0.3,0.6,0.3,1c0,0.5-0.2,1-0.6,1.3
			C10.8,101.5,10.2,101.7,9.4,101.7z"/>
		<path class="st0" d="M19.4,101.5h-0.8v-5.3l-2.2,5.3h-0.3l-2.2-5.3v5.3h-0.8v-6.4h1.1l2,4.8l2-4.8h1.1V101.5z"/>
		<path class="st0" d="M24.1,101.7c-0.9,0-1.7-0.3-2.3-0.9s-0.9-1.4-0.9-2.4c0-1,0.3-1.8,0.9-2.4s1.4-0.9,2.3-0.9
			c1,0,1.8,0.4,2.4,1.3l-0.7,0.4c-0.2-0.3-0.4-0.5-0.7-0.7s-0.7-0.3-1-0.3c-0.7,0-1.3,0.2-1.8,0.7s-0.7,1.1-0.7,1.9s0.2,1.4,0.7,1.9
			s1.1,0.7,1.8,0.7c0.4,0,0.7-0.1,1-0.3c0.3-0.2,0.6-0.4,0.7-0.7l0.7,0.4C26,101.2,25.2,101.7,24.1,101.7z"/>
		<path class="st0" d="M29.6,99.5h-2.3v-0.6h2.3V99.5z"/>
		<path class="st0" d="M31.7,101.5h-0.8v-6.4h2.6c0.6,0,1.1,0.2,1.5,0.6c0.4,0.4,0.5,0.8,0.5,1.4c0,0.5-0.2,1-0.5,1.4
			c-0.4,0.4-0.9,0.6-1.5,0.6h-1.8V101.5z M33.4,98.3c0.4,0,0.7-0.1,0.9-0.3c0.2-0.2,0.4-0.5,0.4-0.9c0-0.4-0.1-0.7-0.4-0.9
			c-0.2-0.2-0.5-0.3-0.9-0.3h-1.7v2.4H33.4z"/>
		<path class="st0" d="M39.6,101.5h-1L36,95.1H37l2.2,5.5l2.2-5.5h0.9L39.6,101.5z"/>
		<path class="st0" d="M45.6,101.5h-0.8v-5.7h-2v-0.7h4.9v0.7h-2V101.5z"/>
		<path class="st0" d="M48.7,103.5l-0.4-0.3c0.3-0.7,0.6-1.3,0.8-1.9c0.2-0.6,0.2-1.3,0.2-2c0-0.8-0.1-1.4-0.2-2
			c-0.2-0.6-0.4-1.2-0.8-1.9l0.4-0.3c0.9,1.2,1.4,2.7,1.4,4.2C50.1,100.8,49.7,102.2,48.7,103.5z"/>
		<path class="st0" d="M57.9,101.5h-3.8v-6.4h0.8v5.7h3V101.5z"/>
		<path class="st0" d="M60.7,101.5h-0.8v-5.7h-2v-0.7h4.9v0.7h-2V101.5z"/>
		<path class="st0" d="M66.1,101.5h-2.2v-6.4h2.2c1,0,1.8,0.3,2.4,0.9c0.6,0.6,0.9,1.4,0.9,2.3c0,0.9-0.3,1.7-0.9,2.3
			C67.9,101.2,67.1,101.5,66.1,101.5z M66.1,100.8c0.8,0,1.4-0.2,1.8-0.7c0.4-0.5,0.7-1.1,0.7-1.8c0-0.7-0.2-1.3-0.7-1.8
			c-0.4-0.5-1-0.7-1.8-0.7h-1.4v5H66.1z"/>
		<path class="st0" d="M71.3,101.5c-0.1,0.1-0.2,0.2-0.4,0.2c-0.1,0-0.3-0.1-0.4-0.2s-0.2-0.2-0.2-0.4c0-0.1,0.1-0.3,0.2-0.4
			s0.2-0.2,0.4-0.2c0.1,0,0.3,0.1,0.4,0.2c0.1,0.1,0.2,0.2,0.2,0.4C71.5,101.3,71.4,101.4,71.3,101.5z"/>
	</g>
</g>
<g>
	<g>
		<g>
			<rect x="4.4" y="2.5" class="st0" width="51.9" height="51.9"/>
		</g>
	</g>
</g>
<path class="st1" d="M38.8,34.2c0,3.4-1.8,6.5-4.5,8.2c-1.5,1-3.3,1.5-5.2,1.6h-7.2L35,26.5C37.3,28.3,38.8,31.1,38.8,34.2z"/>
<g>
	<path class="st2" d="M28.9,12.9c5.4,0,8.8,6,5.9,10.6l-2.4,3.8L22.1,43.7L21.9,44v-0.3l0-19.5l0-4.4C22,16,25.1,12.9,28.9,12.9
		L28.9,12.9z"/>
</g>
</svg>
