<svg xmlns="http://www.w3.org/2000/svg" viewBox="0 0 860.54 730.51"><defs><style>.cls-1,.cls-2{fill:#727277;}.cls-2{opacity:0.5;}</style></defs><g id="Layer_2" data-name="Layer 2"><g id="Layer_1-2" data-name="Layer 1"><path class="cls-1" d="M71.92,550H0V417.43H69.74q18.08,0,28.11,9.83a32.28,32.28,0,0,1,10,23.95q0,12.12-6.56,20.26A27.5,27.5,0,0,1,85,481.6q10.72,1.61,18.08,10.93a34,34,0,0,1,7.35,21.66q0,15.49-10.14,25.63T71.92,550Zm-8.34-79.47q7.15,0,11.32-4a13.61,13.61,0,0,0,4.18-10.33,13.8,13.8,0,0,0-4.28-10.43q-4.27-4.07-11.22-4.07H28.21v28.81Zm1,55q8,0,12.52-4.07t4.57-11.23a14.83,14.83,0,0,0-4.57-11q-4.57-4.47-12.52-4.47H28.21v30.79Z"/><path class="cls-1" d="M225.9,550H141.66V417.43h28.21V525.11h56Z"/><path class="cls-1" d="M355.14,537.43q-15.19,14.91-44.6,14.9t-44.6-15q-15.21-15-15.2-40.23V417.43h28.61v78.68q0,14.29,8.14,22.75t23.05,8.44q14.9,0,22.95-8.44t8-22.75V417.43h28.81V496.9Q370.34,522.54,355.14,537.43Z"/><path class="cls-1" d="M470.48,552.33q-30.21,0-50.37-19.17t-20.17-49.37q0-30.19,20.17-49.37t50.37-19.18q37.14,0,55.43,32.39l-24.24,11.92a36.63,36.63,0,0,0-12.82-13.81,33.17,33.17,0,0,0-18.37-5.46q-18.09,0-29.81,12.32T429,483.79q0,18.87,11.72,31.19t29.81,12.32a33.65,33.65,0,0,0,18.37-5.36A35.42,35.42,0,0,0,501.67,508l24.24,11.72Q507,552.35,470.48,552.33Z"/><path class="cls-1" d="M615.51,552.33q-30,0-49.57-19.37t-19.57-49.17q0-29.81,19.57-49.17t49.57-19.38q30.19,0,49.77,19.28t19.57,49.27q0,30-19.57,49.27T615.51,552.33ZM586.41,515q11,12.33,29.1,12.32T644.72,515q11.12-12.32,11.12-31.19T644.72,452.6q-11.13-12.32-29.21-12.32t-29.1,12.32q-11,12.31-11,31.19T586.41,515Z"/><path class="cls-1" d="M858.3,550H829.89V457.17L792.54,550H780.22l-37.35-92.78V550H714.65V417.43h39.54l32.19,80.07,32.18-80.07H858.3Z"/><path class="cls-1" d="M20.16,636.81H14.47V596.15H0v-5.07H34.7v5.07H20.16Z"/><path class="cls-1" d="M105.12,636.81h-30V591.08h30v5.07H80.84v14.74h23.8V616H80.84v15.77h24.28Z"/><path class="cls-1" d="M168.75,637.64A23,23,0,0,1,152,631q-6.75-6.62-6.75-17t6.75-17a23,23,0,0,1,16.77-6.62,20.15,20.15,0,0,1,17.35,9l-4.8,2.68a15.08,15.08,0,0,0-5.35-4.8,14.62,14.62,0,0,0-7.2-1.85,16.74,16.74,0,0,0-12.58,5.24,20.17,20.17,0,0,0,0,26.68,16.74,16.74,0,0,0,12.58,5.24,14.81,14.81,0,0,0,7.2-1.82,14.61,14.61,0,0,0,5.35-4.83l4.87,2.67Q179.51,637.64,168.75,637.64Z"/><path class="cls-1" d="M264.47,636.81h-5.69v-21H232v21h-5.69V591.08H232v19.68h26.74V591.08h5.69Z"/><path class="cls-1" d="M345.93,636.81h-5.48l-26.68-36.48v36.48h-5.69V591.08h5.83l26.33,35.72V591.08h5.69Z"/><path class="cls-1" d="M410.39,637.64q-10.08,0-16.39-6.72T387.69,614q0-10.22,6.31-16.94t16.39-6.72q10,0,16.35,6.72T433.08,614q0,10.21-6.34,16.94T410.39,637.64Zm0-5.08a15.48,15.48,0,0,0,12.17-5.24q4.62-5.25,4.63-13.34t-4.63-13.37a16.87,16.87,0,0,0-24.38,0q-4.59,5.21-4.59,13.37t4.59,13.34A15.44,15.44,0,0,0,410.39,632.56Z"/><path class="cls-1" d="M501.86,636.81H474.91V591.08h5.69v40.66h21.26Z"/><path class="cls-1" d="M561.31,637.64q-10.08,0-16.39-6.72T538.61,614q0-10.22,6.31-16.94t16.39-6.72q10,0,16.35,6.72T584,614q0,10.21-6.34,16.94T561.31,637.64Zm0-5.08a15.47,15.47,0,0,0,12.17-5.24q4.63-5.25,4.63-13.34t-4.63-13.37a16.87,16.87,0,0,0-24.38,0q-4.59,5.21-4.59,13.37t4.59,13.34A15.44,15.44,0,0,0,561.31,632.56Z"/><path class="cls-1" d="M647.5,637.7a23,23,0,0,1-16.73-6.61Q624,624.47,624,614t6.79-17.08a23.14,23.14,0,0,1,16.73-6.58,21.84,21.84,0,0,1,17.76,8.57l-4.53,2.81a15.6,15.6,0,0,0-5.72-4.59,17,17,0,0,0-7.51-1.71,16.74,16.74,0,0,0-12.58,5.24,20.21,20.21,0,0,0,0,26.71,16.67,16.67,0,0,0,12.58,5.28,16.9,16.9,0,0,0,7-1.47,17.56,17.56,0,0,0,5.24-3.47v-9.32h-15.7v-5.08h21.4v16.53A23.05,23.05,0,0,1,647.5,637.7Z"/><path class="cls-1" d="M713.33,636.81h-5.69V591.08h5.69Z"/><path class="cls-1" d="M786.9,636.81h-30V591.08h30v5.07H762.63v14.74h23.79V616H762.63v15.77H786.9Z"/><path class="cls-1" d="M843.68,637.64q-11.11,0-17.56-7.27l3.36-4.32a18.58,18.58,0,0,0,14.4,6.51q5.55,0,8.16-2.36a7.25,7.25,0,0,0,2.61-5.52,5.81,5.81,0,0,0-1.51-4,10.22,10.22,0,0,0-3.88-2.57,44.94,44.94,0,0,0-5.27-1.68q-2.93-.75-5.8-1.68a29.49,29.49,0,0,1-5.24-2.23,10.57,10.57,0,0,1-3.88-3.7,10.44,10.44,0,0,1-1.51-5.69,11.17,11.17,0,0,1,4.46-9.16,17.57,17.57,0,0,1,11.25-3.53q10.22,0,16.25,6.38L856.09,601q-5-5.49-13.24-5.49a10.78,10.78,0,0,0-6.75,2,6.3,6.3,0,0,0-2.64,5.24,4.84,4.84,0,0,0,2,4,13.36,13.36,0,0,0,5,2.33q3,.75,6.51,1.89t6.52,2.4a11.75,11.75,0,0,1,5,4.08,11.28,11.28,0,0,1,2,6.79,12.63,12.63,0,0,1-4.14,9.53Q852.25,637.63,843.68,637.64Z"/><path class="cls-1" d="M12.75,728.11l-3.08,2.4a52.32,52.32,0,0,1,0-60.61l3.08,2.33a73.84,73.84,0,0,0-5.38,13.58,60.24,60.24,0,0,0,0,28.83A70.08,70.08,0,0,0,12.75,728.11Z"/><path class="cls-1" d="M36.89,717.69q-11.12,0-17.55-7.27l3.36-4.32a18.52,18.52,0,0,0,14.4,6.52q5.55,0,8.16-2.37a7.27,7.27,0,0,0,2.6-5.52,5.72,5.72,0,0,0-1.51-4,10.12,10.12,0,0,0-3.87-2.58,50,50,0,0,0-5.28-1.68q-2.93-.75-5.8-1.68a29.8,29.8,0,0,1-5.24-2.22,10.36,10.36,0,0,1-5.38-9.4A11.13,11.13,0,0,1,25.23,674a17.51,17.51,0,0,1,11.25-3.53q10.22,0,16.25,6.37L49.3,681q-5-5.49-13.23-5.49a10.84,10.84,0,0,0-6.76,2,6.32,6.32,0,0,0-2.64,5.25,4.85,4.85,0,0,0,2,4,13.23,13.23,0,0,0,5,2.33q3,.75,6.52,1.88t6.51,2.4a11.87,11.87,0,0,1,5,4.08,11.39,11.39,0,0,1,2,6.79,12.57,12.57,0,0,1-4.15,9.53Q45.46,717.7,36.89,717.69Z"/><path class="cls-1" d="M109.78,716.87h-5.69V679.22L88.52,716.87H86.19l-15.5-37.65v37.65H65V671.13h8.16l14.2,34.42,14.26-34.42h8.16Z"/><path class="cls-1" d="M144.89,717.69a23,23,0,0,1-16.77-6.62q-6.75-6.62-6.75-17t6.75-17a23,23,0,0,1,16.77-6.62,20.13,20.13,0,0,1,17.34,9l-4.79,2.67a15.27,15.27,0,0,0-5.35-4.8,14.73,14.73,0,0,0-7.2-1.85,16.74,16.74,0,0,0-12.59,5.25,20.16,20.16,0,0,0,0,26.67,16.74,16.74,0,0,0,12.59,5.25,14.92,14.92,0,0,0,7.2-1.82,14.61,14.61,0,0,0,5.35-4.83l4.86,2.67Q155.66,717.69,144.89,717.69Z"/><path class="cls-1" d="M185.48,702.54H169V698h16.46Z"/><path class="cls-1" d="M201.32,716.87h-5.69V671.13H214q6.66,0,10.49,4a14.4,14.4,0,0,1,0,19.61q-3.87,4-10.46,4H201.32Zm12-23.25a9.13,9.13,0,0,0,6.58-2.43,9,9,0,0,0,0-12.55,9.13,9.13,0,0,0-6.58-2.43h-12v17.41Z"/><path class="cls-1" d="M259.33,716.87h-7.07l-18.37-45.74h6.51l15.43,39.5,15.43-39.5h6.51Z"/><path class="cls-1" d="M303.49,716.87h-5.7V676.21H283.33v-5.08H318v5.08H303.49Z"/><path class="cls-1" d="M327.21,730.51l-3.09-2.4a71,71,0,0,0,5.42-13.47,59.54,59.54,0,0,0,0-28.9,73.23,73.23,0,0,0-5.42-13.51l3.09-2.33a52,52,0,0,1,0,60.61Z"/><path class="cls-1" d="M395.44,716.87H368.49V671.13h5.69v40.66h21.26Z"/><path class="cls-1" d="M416.35,716.87h-5.69V676.21H396.19v-5.08h34.7v5.08H416.35Z"/><path class="cls-1" d="M456.81,716.87H441.17V671.13h15.64q10.49,0,17,6.52A22.26,22.26,0,0,1,480.26,694q0,9.94-6.48,16.39T456.81,716.87Zm0-5.08q8.08,0,12.82-5.07A17.9,17.9,0,0,0,474.36,694a18.16,18.16,0,0,0-4.66-12.75q-4.67-5.07-12.89-5.07h-9.95v35.58Z"/><path class="cls-1" d="M495.27,716.46a3.63,3.63,0,0,1-2.67,1.09,3.72,3.72,0,0,1-3.77-3.77,3.63,3.63,0,0,1,1.09-2.67,3.68,3.68,0,0,1,2.68-1.1,3.78,3.78,0,0,1,2.67,6.45Z"/><path class="cls-2" d="M247.28,230.05a70.21,70.21,0,0,1-69.73,70.2H125.94l1.49-2h50a70.19,70.19,0,0,0,69.73-70.2c0-1.52-.05-3-.15-4.54Q247.29,226.73,247.28,230.05Z"/><path class="cls-1" d="M0,0V370.34H370.34V0ZM125.83,298.17l-.06.09v-2.05l.13-140.42,0-31.4a49.8,49.8,0,0,1,49.8-49.76c39.12,0,63,43,42.23,76.2l-9.18,14.67-7.87,12.59L127.06,296.21Zm89.06-11.06a69.88,69.88,0,0,1-37.5,11.15h-50l92.68-123.68A70,70,0,0,1,247,223.36a.81.81,0,0,1,0,.16c.1,1.5.15,3,.15,4.54A70.17,70.17,0,0,1,214.89,287.11Z"/><path class="cls-2" d="M247.12,228.06a70.19,70.19,0,0,1-69.73,70.2h-50l92.68-123.68A70,70,0,0,1,247,223.36a.81.81,0,0,1,0,.16C247.07,225,247.12,226.54,247.12,228.06Z"/></g></g></svg>