<?xml version="1.0" encoding="utf-8"?>
<!-- Generator: Adobe Illustrator 25.3.1, SVG Export Plug-In . SVG Version: 6.00 Build 0)  -->
<svg version="1.1" id="Layer_1" xmlns="http://www.w3.org/2000/svg" xmlns:xlink="http://www.w3.org/1999/xlink" x="0px" y="0px"
	 viewBox="0 0 286.4 92.4" style="enable-background:new 0 0 286.4 92.4;" xml:space="preserve">
<style type="text/css">
	.st0{opacity:0.5;fill:#00AF80;enable-background:new    ;}
	.st1{fill:#00AF80;}
	.st2{fill:#727277;}
</style>
<path class="st0" d="M48,60.8c0,15.3-12.3,27.7-27.6,27.8H0l37.3-49.8C44.1,44.1,48.1,52.2,48,60.8z"/>
<path class="st1" d="M36.5,30.2L32.9,36l-3.1,5L0.5,87.8L0,88.6v-0.8l0.1-55.6V19.7C0.1,8.8,8.9,0,19.8,0s19.7,8.9,19.7,19.8
	C39.5,23.5,38.4,27.1,36.5,30.2z"/>
<path class="st2" d="M82.3,60.8h-18V27.7h17.5c2.6-0.1,5.1,0.7,7,2.5c1.6,1.6,2.6,3.7,2.5,6c0.1,1.8-0.5,3.6-1.6,5.1
	c-1,1.3-2.5,2.2-4.1,2.5c1.8,0.3,3.4,1.3,4.5,2.7c1.2,1.5,1.9,3.4,1.9,5.4c0.1,2.4-0.8,4.7-2.5,6.4C87.5,60.1,85,61,82.3,60.8z
	 M80.2,41c1,0.1,2.1-0.3,2.8-1c1.4-1.4,1.4-3.8,0-5.2c-0.8-0.7-1.8-1.1-2.8-1h-8.9V41H80.2z M80.5,54.8c1.1,0.1,2.3-0.3,3.1-1
	c0.8-0.7,1.2-1.8,1.1-2.8c0-1-0.4-2-1.1-2.8c-0.8-0.8-2-1.3-3.1-1.2h-9.1v7.7L80.5,54.8z M120.9,60.8H99.8V27.7h7.1v27h14
	L120.9,60.8z M153.3,57.7c-2.5,2.5-6.3,3.7-11.2,3.7s-8.6-1.3-11.2-3.8c-2.5-2.5-3.8-5.9-3.8-10.1v-20h7.2v19.7
	c-0.1,2.1,0.6,4.1,2,5.7c1.5,1.5,3.6,2.3,5.8,2.1c2.1,0.1,4.2-0.6,5.8-2.1c1.4-1.6,2.1-3.6,2-5.7V27.7h7.2v19.9
	C157.1,51.9,155.8,55.2,153.3,57.7z M182.1,61.4c-4.7,0.1-9.2-1.6-12.6-4.8c-3.4-3.2-5.2-7.7-5.1-12.4c-0.2-4.7,1.7-9.2,5.1-12.4
	c3.4-3.2,7.9-4.9,12.6-4.8c5.8-0.2,11.2,2.9,13.9,8.1l-6.1,3c-0.8-1.4-1.9-2.6-3.2-3.5c-1.4-0.9-3-1.4-4.6-1.4
	c-2.8-0.1-5.5,1-7.5,3.1c-2,2.1-3,4.9-2.9,7.8c-0.1,2.9,1,5.7,2.9,7.8c1.9,2.1,4.6,3.2,7.5,3.1c1.6,0,3.2-0.5,4.6-1.3
	c1.4-0.8,2.5-2.1,3.3-3.5l6,2.9C192.9,58.7,188.2,61.4,182.1,61.4z M218.5,61.4c-4.6,0.2-9.1-1.6-12.4-4.8
	c-3.3-3.2-5.1-7.7-4.9-12.3c-0.1-4.6,1.6-9,4.9-12.3c3.3-3.3,7.8-5,12.4-4.9c4.6-0.2,9.1,1.6,12.5,4.8c3.3,3.3,5.1,7.7,4.9,12.3
	c0.2,4.6-1.6,9.1-4.9,12.3C227.6,59.9,223.1,61.6,218.5,61.4z M211.2,52.1c3.9,4,10.3,4.1,14.4,0.2c0.1-0.1,0.1-0.1,0.2-0.2
	c1.9-2.1,2.9-4.9,2.8-7.8c0.1-2.9-0.9-5.7-2.8-7.8c-3.9-4-10.4-4.1-14.4-0.2c-0.1,0.1-0.1,0.1-0.2,0.2c-1.9,2.2-2.9,5-2.8,7.8
	C208.3,47.1,209.3,49.9,211.2,52.1L211.2,52.1z M279.2,60.8h-7.1V37.6l-9.4,23.2h-3.1l-9.4-23.2v23.2h-7.1V27.7h9.9l8.1,20l8.1-20
	h10V60.8z M68.6,87.5h-1.5V77.1h-3.7v-1.3h9v1.3h-3.8V87.5z M89.9,87.5h-7.7V75.7h7.7v1.3h-6.3v3.8h6.1v1.3h-6.1v4.1h6.3V87.5z
	 M105.6,87.8c-1.7,0-3.2-0.6-4.3-1.7c-1.2-1.1-1.7-2.6-1.7-4.4c0-1.8,0.6-3.3,1.7-4.4c1.2-1.1,2.6-1.7,4.3-1.7
	c1.9,0,3.4,0.8,4.5,2.3l-1.2,0.7c-0.3-0.5-0.8-0.9-1.4-1.2c-0.6-0.3-1.2-0.5-1.9-0.5c-1.3,0-2.4,0.5-3.2,1.4
	c-0.9,0.9-1.3,2.1-1.3,3.4c0,1.4,0.4,2.5,1.3,3.4c0.9,0.9,1.9,1.4,3.2,1.4c0.7,0,1.3-0.2,1.9-0.5c0.6-0.3,1-0.7,1.4-1.2l1.3,0.7
	C108.9,87,107.4,87.8,105.6,87.8z M129.5,87.5h-1.5v-5.4h-6.9v5.4h-1.5V75.7h1.5v5.1h6.9v-5.1h1.5V87.5z M149.8,87.5h-1.4l-6.9-9.4
	v9.4h-1.5V75.7h1.5l6.8,9.2v-9.2h1.5V87.5z M165.8,87.8c-1.7,0-3.1-0.6-4.2-1.7c-1.1-1.2-1.6-2.6-1.6-4.4c0-1.8,0.5-3.2,1.6-4.4
	s2.5-1.7,4.2-1.7c1.7,0,3.1,0.6,4.2,1.7c1.1,1.2,1.6,2.6,1.6,4.4c0,1.8-0.5,3.2-1.6,4.4C168.9,87.2,167.5,87.8,165.8,87.8z
	 M165.8,86.5c1.3,0,2.3-0.5,3.1-1.4c0.8-0.9,1.2-2.1,1.2-3.4c0-1.4-0.4-2.6-1.2-3.5c-0.8-0.9-1.8-1.3-3.1-1.3
	c-1.3,0-2.4,0.4-3.2,1.3c-0.8,0.9-1.2,2-1.2,3.5c0,1.4,0.4,2.5,1.2,3.4C163.4,86,164.4,86.5,165.8,86.5z M188.7,87.5h-7V75.7h1.5
	v10.5h5.5V87.5z M203.4,87.8c-1.7,0-3.1-0.6-4.2-1.7c-1.1-1.2-1.6-2.6-1.6-4.4c0-1.8,0.5-3.2,1.6-4.4s2.5-1.7,4.2-1.7
	c1.7,0,3.1,0.6,4.2,1.7c1.1,1.2,1.6,2.6,1.6,4.4c0,1.8-0.5,3.2-1.6,4.4C206.5,87.2,205.1,87.8,203.4,87.8z M203.4,86.5
	c1.3,0,2.3-0.5,3.1-1.4c0.8-0.9,1.2-2.1,1.2-3.4c0-1.4-0.4-2.6-1.2-3.5c-0.8-0.9-1.8-1.3-3.1-1.3c-1.3,0-2.4,0.4-3.2,1.3
	c-0.8,0.9-1.2,2-1.2,3.5c0,1.4,0.4,2.5,1.2,3.4C201,86,202.1,86.5,203.4,86.5z M224.9,87.8c-1.7,0-3.2-0.6-4.3-1.7s-1.8-2.6-1.8-4.4
	c0-1.8,0.6-3.3,1.8-4.4s2.6-1.7,4.3-1.7c1.9,0,3.4,0.7,4.6,2.2l-1.2,0.7c-0.4-0.5-0.9-0.9-1.5-1.2s-1.3-0.4-1.9-0.4
	c-1.3,0-2.4,0.5-3.2,1.4c-0.9,0.9-1.3,2.1-1.3,3.4c0,1.4,0.4,2.5,1.3,3.5c0.9,0.9,1.9,1.4,3.2,1.4c0.6,0,1.3-0.1,1.8-0.4
	s1-0.6,1.4-0.9v-2.4H224v-1.3h5.5v4.3C228.3,87.1,226.8,87.8,224.9,87.8z M241.2,87.5h-1.5V75.7h1.5V87.5z M259.4,87.5h-7.7V75.7
	h7.7v1.3h-6.3v3.8h6.1v1.3h-6.1v4.1h6.3V87.5z M273.3,87.8c-1.9,0-3.4-0.6-4.5-1.9l0.9-1.1c1,1.1,2.2,1.7,3.7,1.7
	c1,0,1.7-0.2,2.1-0.6s0.7-0.9,0.7-1.4c0-0.4-0.1-0.8-0.4-1s-0.6-0.5-1-0.7s-0.9-0.3-1.4-0.4c-0.5-0.1-1-0.3-1.5-0.4
	c-0.5-0.2-0.9-0.4-1.4-0.6c-0.4-0.2-0.7-0.5-1-1s-0.4-0.9-0.4-1.5c0-1,0.4-1.8,1.2-2.4c0.8-0.6,1.7-0.9,2.9-0.9
	c1.8,0,3.2,0.5,4.2,1.6l-0.9,1.1c-0.9-0.9-2-1.4-3.4-1.4c-0.7,0-1.3,0.2-1.7,0.5c-0.5,0.3-0.7,0.8-0.7,1.4c0,0.4,0.2,0.8,0.5,1
	c0.3,0.3,0.8,0.5,1.3,0.6c0.5,0.1,1.1,0.3,1.7,0.5s1.2,0.4,1.7,0.6c0.5,0.2,0.9,0.6,1.3,1.1c0.3,0.5,0.5,1.1,0.5,1.8
	c0,1-0.4,1.8-1.1,2.5C275.9,87.4,274.8,87.8,273.3,87.8z"/>
</svg>
