<svg xmlns="http://www.w3.org/2000/svg" viewBox="0 0 286.36 92.36"><defs><style>.cls-1,.cls-2{fill:#00af80;}.cls-1{opacity:0.5;}.cls-3,.cls-4{fill:#727277;}.cls-4{font-size:17.7px;font-family:ProximaNova-Regular, Proxima Nova;letter-spacing:0.44em;}.cls-5{letter-spacing:0.41em;}.cls-6{letter-spacing:0.44em;}</style></defs><g id="Layer_2" data-name="Layer 2"><g id="Layer_1-2" data-name="Layer 1"><path class="cls-1" d="M48.05,60.76a27.8,27.8,0,0,1-27.61,27.8H0L37.3,38.79A27.78,27.78,0,0,1,48.05,60.76Z"/><path class="cls-2" d="M36.5,30.18,32.87,36l-3.12,5L.51,87.75,0,88.56v-.81L.05,32.14V19.7A19.72,19.72,0,1,1,36.5,30.18Z"/><path class="cls-3" d="M82.34,60.85h-18V27.66H81.79a9.63,9.63,0,0,1,7,2.47,8.06,8.06,0,0,1,2.52,6,7.86,7.86,0,0,1-1.64,5.08,6.9,6.9,0,0,1-4.08,2.53,6.92,6.92,0,0,1,4.52,2.74A8.51,8.51,0,0,1,92,51.89a8.7,8.7,0,0,1-2.53,6.42A9.65,9.65,0,0,1,82.34,60.85ZM80.25,41a3.92,3.92,0,0,0,2.84-1,3.73,3.73,0,0,0,0-5.2,3.9,3.9,0,0,0-2.81-1H71.4V41Zm.25,13.78a4.56,4.56,0,0,0,3.14-1,3.58,3.58,0,0,0,1.14-2.81,3.7,3.7,0,0,0-1.14-2.76A4.29,4.29,0,0,0,80.5,47H71.4v7.71Z"/><path class="cls-3" d="M120.9,60.85H99.8V27.66h7.07v27h14Z"/><path class="cls-3" d="M153.26,57.71q-3.81,3.74-11.17,3.73t-11.17-3.75c-2.53-2.51-3.8-5.86-3.8-10.08V27.66h7.16V47.37a7.86,7.86,0,0,0,2,5.69,7.64,7.64,0,0,0,5.77,2.12,7.56,7.56,0,0,0,5.75-2.12,7.92,7.92,0,0,0,2-5.69V27.66h7.22v19.9Q157.07,54,153.26,57.71Z"/><path class="cls-3" d="M182.14,61.44a17.59,17.59,0,0,1-12.61-4.8,16.28,16.28,0,0,1-5.05-12.36,16.28,16.28,0,0,1,5.05-12.36,17.59,17.59,0,0,1,12.61-4.8A14.93,14.93,0,0,1,196,35.23l-6.07,3a9.23,9.23,0,0,0-3.21-3.46,8.31,8.31,0,0,0-4.6-1.36,9.82,9.82,0,0,0-7.46,3.08,10.87,10.87,0,0,0-2.94,7.81,10.86,10.86,0,0,0,2.94,7.81,9.83,9.83,0,0,0,7.46,3.09,8.38,8.38,0,0,0,4.6-1.35A8.79,8.79,0,0,0,190,50.35L196,53.29Q191.3,61.45,182.14,61.44Z"/><path class="cls-3" d="M218.46,61.44a16.87,16.87,0,0,1-12.41-4.85,16.56,16.56,0,0,1-4.9-12.31A16.58,16.58,0,0,1,206.05,32a16.87,16.87,0,0,1,12.41-4.85,17,17,0,0,1,12.46,4.82,16.57,16.57,0,0,1,4.9,12.34,16.57,16.57,0,0,1-4.9,12.34A17,17,0,0,1,218.46,61.44Zm-7.29-9.35a10.17,10.17,0,0,0,14.6,0,11.19,11.19,0,0,0,2.79-7.81,11.21,11.21,0,0,0-2.79-7.81,10.19,10.19,0,0,0-14.6,0,11.28,11.28,0,0,0-2.76,7.81A11.26,11.26,0,0,0,211.17,52.09Z"/><path class="cls-3" d="M279.25,60.85h-7.11V37.61l-9.35,23.24H259.7l-9.35-23.24V60.85h-7.07V27.66h9.9l8.06,20.05,8.06-20h9.95Z"/><text class="cls-4" transform="translate(62.88 87.55)">TECHNO<tspan class="cls-5" x="117.51" y="0">L</tspan><tspan class="cls-6" x="133.72" y="0">OGIES</tspan></text></g></g></svg>